<?xml version="1.0" standalone="no"?>
<!DOCTYPE svg PUBLIC "-//W3C//DTD SVG 20010904//EN"
 "http://www.w3.org/TR/2001/REC-SVG-20010904/DTD/svg10.dtd">
<svg version="1.0" xmlns="http://www.w3.org/2000/svg"
 width="260.000000pt" height="260.000000pt" viewBox="0 0 260.000000 260.000000"
 preserveAspectRatio="xMidYMid meet">
<metadata>
Created by potrace 1.14, written by Peter Selinger 2001-2017
</metadata>
<g transform="translate(0.000000,260.000000) scale(0.100000,-0.100000)"
fill="#000000" stroke="none">
<path d="M116 2580 c-50 -25 -93 -74 -106 -119 -14 -49 -13 -2273 0 -2322 12
-42 68 -104 113 -123 44 -19 2276 -23 2339 -4 51 15 114 77 127 125 16 57 15
2272 -1 2325 -15 51 -77 114 -125 127 -26 7 -404 11 -1173 11 -1104 -1 -1136
-1 -1174 -20z"/>
</g>
</svg>
