<?xml version="1.0" standalone="no"?>
<!DOCTYPE svg PUBLIC "-//W3C//DTD SVG 20010904//EN"
 "http://www.w3.org/TR/2001/REC-SVG-20010904/DTD/svg10.dtd">
<svg version="1.0" xmlns="http://www.w3.org/2000/svg"
 width="260.000000pt" height="260.000000pt" viewBox="0 0 260.000000 260.000000"
 preserveAspectRatio="xMidYMid meet">
<metadata>
Created by potrace 1.14, written by Peter Selinger 2001-2017
</metadata>
<g transform="translate(0.000000,260.000000) scale(0.100000,-0.100000)"
fill="#000000" stroke="none">
<path d="M1402 2207 l-192 -192 57 -57 57 -58 -39 -40 -39 -40 -58 57 -57 57
-466 -468 -465 -467 122 -124 c68 -68 125 -120 128 -115 11 17 95 37 139 33
127 -11 216 -115 213 -245 0 -15 -9 -47 -20 -71 l-20 -45 122 -121 122 -121
466 469 465 469 -53 53 c-30 29 -54 56 -54 60 0 4 16 24 36 44 l35 37 38 -39
c85 -87 55 -100 270 117 l190 191 -117 120 -117 120 -54 -26 c-201 -101 -409
120 -299 317 l22 39 -120 119 -119 120 -193 -193z m98 -482 l54 -55 -39 -40
-39 -40 -58 57 -58 57 37 38 c20 21 40 38 43 38 3 0 30 -25 60 -55z m231 -232
l56 -57 -40 -39 -40 -39 -53 53 c-30 29 -54 57 -54 61 0 8 62 77 70 78 2 0 30
-26 61 -57z"/>
</g>
</svg>
